<svg width="20" height="20" viewBox="0 0 20 20" fill="none" xmlns="http://www.w3.org/2000/svg">
<path d="M15.8382 5.83333V3.33333C15.8382 3.11232 15.7504 2.90036 15.5941 2.74408C15.4379 2.5878 15.2259 2.5 15.0049 2.5H4.17155C3.72952 2.5 3.3056 2.67559 2.99304 2.98816C2.68048 3.30072 2.50488 3.72464 2.50488 4.16667C2.50488 4.60869 2.68048 5.03262 2.99304 5.34518C3.3056 5.65774 3.72952 5.83333 4.17155 5.83333H16.6715C16.8926 5.83333 17.1045 5.92113 17.2608 6.07741C17.4171 6.23369 17.5049 6.44565 17.5049 6.66667V10M17.5049 10H15.0049C14.5629 10 14.1389 10.1756 13.8264 10.4882C13.5138 10.8007 13.3382 11.2246 13.3382 11.6667C13.3382 12.1087 13.5138 12.5326 13.8264 12.8452C14.1389 13.1577 14.5629 13.3333 15.0049 13.3333H17.5049C17.7259 13.3333 17.9379 13.2455 18.0941 13.0893C18.2504 12.933 18.3382 12.721 18.3382 12.5V10.8333C18.3382 10.6123 18.2504 10.4004 18.0941 10.2441C17.9379 10.0878 17.7259 10 17.5049 10Z" stroke="url(#paint0_linear_115_78)" stroke-width="1.66667" stroke-linecap="round" stroke-linejoin="round"/>
<path d="M2.50488 4.16666V15.8333C2.50488 16.2754 2.68048 16.6993 2.99304 17.0118C3.3056 17.3244 3.72952 17.5 4.17155 17.5H16.6715C16.8926 17.5 17.1045 17.4122 17.2608 17.2559C17.4171 17.0996 17.5049 16.8877 17.5049 16.6667V13.3333" stroke="url(#paint1_linear_115_78)" stroke-width="1.66667" stroke-linecap="round" stroke-linejoin="round"/>
<defs>
<linearGradient id="paint0_linear_115_78" x1="2.50488" y1="7.91667" x2="18.3382" y2="7.91667" gradientUnits="userSpaceOnUse">
<stop stop-color="#7255F7"/>
<stop offset="1" stop-color="#BB99FF"/>
</linearGradient>
<linearGradient id="paint1_linear_115_78" x1="2.50488" y1="10.8333" x2="17.5049" y2="10.8333" gradientUnits="userSpaceOnUse">
<stop stop-color="#7255F7"/>
<stop offset="1" stop-color="#BB99FF"/>
</linearGradient>
</defs>
</svg>
