<svg width="33" height="32" viewBox="0 0 33 32" fill="none" xmlns="http://www.w3.org/2000/svg">
<rect x="0.97998" width="32" height="32" rx="16" fill="#F8FAFC"/>
<path d="M11.3913 17.8182H12.7436L13.8771 19.3097L14.1754 19.7074L15.8657 21.9545H14.5135L13.3998 20.4631L13.1214 20.0852L11.3913 17.8182ZM16.2833 15.9091C16.2833 16.983 16.0894 17.911 15.7017 18.6932C15.3139 19.4754 14.7819 20.0786 14.1058 20.5028C13.4296 20.9271 12.6574 21.1392 11.789 21.1392C10.9206 21.1392 10.1484 20.9271 9.47226 20.5028C8.79612 20.0786 8.26416 19.4754 7.87638 18.6932C7.48859 17.911 7.2947 16.983 7.2947 15.9091C7.2947 14.8352 7.48859 13.9072 7.87638 13.125C8.26416 12.3428 8.79612 11.7396 9.47226 11.3153C10.1484 10.8911 10.9206 10.679 11.789 10.679C12.6574 10.679 13.4296 10.8911 14.1058 11.3153C14.7819 11.7396 15.3139 12.3428 15.7017 13.125C16.0894 13.9072 16.2833 14.8352 16.2833 15.9091ZM15.0902 15.9091C15.0902 15.0275 14.9427 14.2834 14.6477 13.6768C14.356 13.0703 13.9599 12.6113 13.4595 12.2997C12.9623 11.9882 12.4055 11.8324 11.789 11.8324C11.1725 11.8324 10.6141 11.9882 10.1136 12.2997C9.61643 12.6113 9.22036 13.0703 8.92538 13.6768C8.63372 14.2834 8.48788 15.0275 8.48788 15.9091C8.48788 16.7907 8.63372 17.5348 8.92538 18.1413C9.22036 18.7479 9.61643 19.2069 10.1136 19.5185C10.6141 19.83 11.1725 19.9858 11.789 19.9858C12.4055 19.9858 12.9623 19.83 13.4595 19.5185C13.9599 19.2069 14.356 18.7479 14.6477 18.1413C14.9427 17.5348 15.0902 16.7907 15.0902 15.9091ZM25.0383 10.8182H26.2713V17.5597C26.2713 18.2557 26.1072 18.8771 25.7791 19.424C25.4543 19.9676 24.9952 20.3968 24.4019 20.7116C23.8087 21.0232 23.1126 21.179 22.3139 21.179C21.5151 21.179 20.8191 21.0232 20.2258 20.7116C19.6325 20.3968 19.1718 19.9676 18.8437 19.424C18.5189 18.8771 18.3565 18.2557 18.3565 17.5597V10.8182H19.5894V17.4602C19.5894 17.9574 19.6988 18.3999 19.9176 18.7876C20.1363 19.1721 20.4479 19.4754 20.8522 19.6974C21.2599 19.9162 21.7471 20.0256 22.3139 20.0256C22.8806 20.0256 23.3679 19.9162 23.7755 19.6974C24.1832 19.4754 24.4947 19.1721 24.7102 18.7876C24.9289 18.3999 25.0383 17.9574 25.0383 17.4602V10.8182Z" fill="#05080F"/>
</svg>
