<svg width="17" height="16" viewBox="0 0 17 16" fill="none" xmlns="http://www.w3.org/2000/svg">
<path d="M10.2757 14.4573C10.301 14.5205 10.345 14.5743 10.4018 14.6117C10.4587 14.6491 10.5256 14.6682 10.5936 14.6664C10.6615 14.6647 10.7274 14.6422 10.7822 14.6019C10.837 14.5617 10.8783 14.5057 10.9003 14.4413L15.2337 1.77466C15.255 1.71559 15.2591 1.65167 15.2454 1.59037C15.2317 1.52907 15.2009 1.47293 15.1565 1.42852C15.1121 1.3841 15.0559 1.35326 14.9946 1.33959C14.9333 1.32592 14.8694 1.32999 14.8103 1.35133L2.14366 5.68466C2.07932 5.70673 2.02328 5.74794 1.98304 5.80278C1.94281 5.85761 1.92031 5.92344 1.91857 5.99144C1.91682 6.05943 1.93592 6.12632 1.9733 6.18315C2.01067 6.23997 2.06454 6.284 2.12766 6.30933L7.41433 8.42933C7.58145 8.49624 7.7333 8.5963 7.8607 8.72348C7.98811 8.85066 8.08845 9.00233 8.15566 9.16933L10.2757 14.4573Z" stroke="#FFCC4D" stroke-width="1.33333" stroke-linecap="round" stroke-linejoin="round"/>
<path d="M15.1542 1.43134L7.86084 8.724" stroke="#FFCC4D" stroke-width="1.33333" stroke-linecap="round" stroke-linejoin="round"/>
</svg>
