<svg width="17" height="16" viewBox="0 0 17 16" fill="none" xmlns="http://www.w3.org/2000/svg">
<path d="M9.86062 14.4573C9.88595 14.5205 9.92998 14.5743 9.9868 14.6117C10.0436 14.6491 10.1105 14.6682 10.1785 14.6664C10.2465 14.6647 10.3123 14.6422 10.3672 14.6019C10.422 14.5617 10.4632 14.5057 10.4853 14.4413L14.8186 1.77466C14.84 1.71559 14.844 1.65167 14.8304 1.59037C14.8167 1.52907 14.7858 1.47293 14.7414 1.42852C14.697 1.3841 14.6409 1.35326 14.5796 1.33959C14.5183 1.32592 14.4544 1.32999 14.3953 1.35133L1.72862 5.68466C1.66429 5.70673 1.60824 5.74794 1.568 5.80278C1.52777 5.85761 1.50527 5.92344 1.50353 5.99144C1.50179 6.05943 1.52088 6.12632 1.55826 6.18315C1.59564 6.23997 1.6495 6.284 1.71262 6.30933L6.99929 8.42933C7.16641 8.49624 7.31826 8.5963 7.44567 8.72348C7.57307 8.85066 7.67341 9.00233 7.74062 9.16933L9.86062 14.4573Z" stroke="#FFCC4D" stroke-width="1.33333" stroke-linecap="round" stroke-linejoin="round"/>
<path d="M14.7391 1.43134L7.4458 8.724" stroke="#FFCC4D" stroke-width="1.33333" stroke-linecap="round" stroke-linejoin="round"/>
</svg>
